<svg xmlns="http://www.w3.org/2000/svg" xmlns:xlink="http://www.w3.org/1999/xlink" width="114" height="30" viewBox="0 0 114 30">
  <defs>
    <clipPath id="clip-path">
      <rect id="Rechteck_1612" data-name="Rechteck 1612" width="114" height="30"/>
    </clipPath>
  </defs>
  <g id="logo" clip-path="url(#clip-path)">
    <g id="popcorn" transform="translate(-73.141)">
      <path id="Vereinigungsmenge_1" data-name="Vereinigungsmenge 1" d="M-160.979,155.58v-7.619a9.767,9.767,0,0,0,2.631-.554l-.769,8.174Zm-3.62,0-.769-8.174a9.758,9.758,0,0,0,2.631.554v7.619Zm7.247,0,.868-9.236a2.883,2.883,0,0,0,1.093-2.178,2.719,2.719,0,0,0-.718-1.8l.6-6.362h4.35l-3.092,19.579Zm-12.11,0L-172.555,136h4.35l.6,6.363a2.715,2.715,0,0,0-.718,1.8,2.886,2.886,0,0,0,1.093,2.179l.868,9.235Z" transform="translate(246 -125.579)" fill="#6366f1"/>
      <g id="Gruppe_4" data-name="Gruppe 4" transform="translate(79.56 10.421)">
        <g id="Gruppe_3" data-name="Gruppe 3">
          <path id="Pfad_7" data-name="Pfad 7" d="M177.809,177.846l.486,5.171a9.292,9.292,0,0,1,3.217-.8v-4.371Z" transform="translate(-177.809 -177.846)" fill="#6366f1"/>
        </g>
      </g>
      <g id="Gruppe_8" data-name="Gruppe 8" transform="translate(74.121)">
        <g id="Gruppe_7" data-name="Gruppe 7">
          <path id="Pfad_9" data-name="Pfad 9" d="M104.269,7.224a2.982,2.982,0,0,0-.889-.648A2.978,2.978,0,0,0,100,2.956q0-.051,0-.1a2.983,2.983,0,0,0-5-2.07,2.983,2.983,0,0,0-5,2.107q0,.032,0,.063a2.983,2.983,0,0,0-3.381,3.62,2.988,2.988,0,0,0-1.64,2.087H105.02a2.955,2.955,0,0,0-.751-1.439Z" transform="translate(-84.979)" fill="#6366f1"/>
        </g>
      </g>
      <g id="Gruppe_10" data-name="Gruppe 10" transform="translate(79.432 16.516)">
        <g id="Gruppe_9" data-name="Gruppe 9">
          <path id="Pfad_10" data-name="Pfad 10" d="M183.873,282.631a8.608,8.608,0,0,0-7.083,0c-.731.386-1.168.875-1.168,1.309s.437.922,1.168,1.308a8.608,8.608,0,0,0,7.083,0c.732-.386,1.168-.875,1.168-1.308S184.6,283.017,183.873,282.631Z" transform="translate(-175.622 -281.869)" fill="#6366f1"/>
        </g>
      </g>
      <g id="Gruppe_16" data-name="Gruppe 16" transform="translate(85.02 10.421)">
        <g id="Gruppe_15" data-name="Gruppe 15">
          <path id="Pfad_13" data-name="Pfad 13" d="M271,177.846v4.371a9.294,9.294,0,0,1,3.217.8l.486-5.171Z" transform="translate(-271.001 -177.846)" fill="#6366f1"/>
        </g>
      </g>
    </g>
    <path id="gudMovies" d="M4.11-8.49a3.221,3.221,0,0,1,1.553.36,2.652,2.652,0,0,1,1.028.945V-8.37H9.255V-.015A4.708,4.708,0,0,1,8.8,2.078,3.487,3.487,0,0,1,7.4,3.57a4.513,4.513,0,0,1-2.332.555,4.851,4.851,0,0,1-3.015-.878A3.312,3.312,0,0,1,.735.87H3.27a1.214,1.214,0,0,0,.57.757,2.078,2.078,0,0,0,1.11.278,1.745,1.745,0,0,0,1.267-.458A1.962,1.962,0,0,0,6.69-.015V-1.2a2.845,2.845,0,0,1-1.035.952A3.125,3.125,0,0,1,4.11.12,3.429,3.429,0,0,1,2.235-.412,3.68,3.68,0,0,1,.907-1.928,5.05,5.05,0,0,1,.42-4.2,5,5,0,0,1,.907-6.465a3.636,3.636,0,0,1,1.328-1.5A3.466,3.466,0,0,1,4.11-8.49Zm2.58,4.3A2.1,2.1,0,0,0,6.157-5.7a1.73,1.73,0,0,0-1.3-.555,1.741,1.741,0,0,0-1.3.548A2.07,2.07,0,0,0,3.03-4.2a2.124,2.124,0,0,0,.532,1.522,1.719,1.719,0,0,0,1.3.563,1.73,1.73,0,0,0,1.3-.555A2.1,2.1,0,0,0,6.69-4.185ZM19.38-8.37V0H16.815V-1.14a2.815,2.815,0,0,1-1.058.892A3.227,3.227,0,0,1,14.28.09a3.309,3.309,0,0,1-1.7-.428,2.882,2.882,0,0,1-1.14-1.237,4.211,4.211,0,0,1-.4-1.905V-8.37h2.55v4.545a1.837,1.837,0,0,0,.435,1.3,1.525,1.525,0,0,0,1.17.465A1.544,1.544,0,0,0,16.38-2.52a1.837,1.837,0,0,0,.435-1.3V-8.37ZM20.715-4.2A5,5,0,0,1,21.2-6.465a3.636,3.636,0,0,1,1.328-1.5A3.466,3.466,0,0,1,24.4-8.49a3.293,3.293,0,0,1,1.508.345,2.747,2.747,0,0,1,1.073.93V-11.1H29.55V0H26.985V-1.2a2.613,2.613,0,0,1-1.028.96A3.221,3.221,0,0,1,24.4.12,3.429,3.429,0,0,1,22.53-.412,3.68,3.68,0,0,1,21.2-1.928,5.05,5.05,0,0,1,20.715-4.2Zm6.27.015A2.1,2.1,0,0,0,26.452-5.7a1.73,1.73,0,0,0-1.3-.555,1.741,1.741,0,0,0-1.3.548A2.07,2.07,0,0,0,23.325-4.2a2.124,2.124,0,0,0,.532,1.522,1.719,1.719,0,0,0,1.3.563,1.73,1.73,0,0,0,1.3-.555A2.1,2.1,0,0,0,26.985-4.185Zm16.35-6.345V0H40.77V-6.315L38.415,0h-2.07l-2.37-6.33V0H31.41V-10.53h3.03L37.4-3.24l2.925-7.29ZM48.99.12a4.62,4.62,0,0,1-2.213-.525,3.844,3.844,0,0,1-1.545-1.5,4.482,4.482,0,0,1-.562-2.28,4.446,4.446,0,0,1,.57-2.272A3.868,3.868,0,0,1,46.8-7.965a4.664,4.664,0,0,1,2.22-.525,4.664,4.664,0,0,1,2.22.525A3.868,3.868,0,0,1,52.8-6.457a4.446,4.446,0,0,1,.57,2.272,4.4,4.4,0,0,1-.577,2.273A3.905,3.905,0,0,1,51.217-.405,4.708,4.708,0,0,1,48.99.12Zm0-2.22a1.671,1.671,0,0,0,1.252-.54,2.145,2.145,0,0,0,.517-1.545,2.185,2.185,0,0,0-.5-1.545,1.624,1.624,0,0,0-1.237-.54,1.628,1.628,0,0,0-1.245.533,2.2,2.2,0,0,0-.5,1.552,2.228,2.228,0,0,0,.488,1.545A1.578,1.578,0,0,0,48.99-2.1Zm9.51-.3,1.815-5.97h2.73L60.075,0H56.91L53.94-8.37h2.745Zm6.915-6.84a1.555,1.555,0,0,1-1.1-.4,1.288,1.288,0,0,1-.428-.983,1.3,1.3,0,0,1,.428-1,1.555,1.555,0,0,1,1.1-.4,1.534,1.534,0,0,1,1.088.4,1.3,1.3,0,0,1,.427,1,1.288,1.288,0,0,1-.427.983A1.534,1.534,0,0,1,65.415-9.24Zm1.275.87V0H64.125V-8.37Zm9.75,4.05a6.548,6.548,0,0,1-.045.75H70.59a1.744,1.744,0,0,0,.5,1.193,1.535,1.535,0,0,0,1.087.413,1.348,1.348,0,0,0,1.335-.81h2.73a3.746,3.746,0,0,1-.757,1.485A3.793,3.793,0,0,1,74.115-.255,4.409,4.409,0,0,1,72.27.12a4.489,4.489,0,0,1-2.19-.525,3.734,3.734,0,0,1-1.5-1.5,4.631,4.631,0,0,1-.54-2.28,4.684,4.684,0,0,1,.533-2.28,3.686,3.686,0,0,1,1.493-1.5A4.521,4.521,0,0,1,72.27-8.49a4.476,4.476,0,0,1,2.16.51,3.662,3.662,0,0,1,1.478,1.455A4.416,4.416,0,0,1,76.44-4.32Zm-2.625-.675a1.319,1.319,0,0,0-.45-1.05,1.656,1.656,0,0,0-1.125-.39,1.625,1.625,0,0,0-1.088.375,1.666,1.666,0,0,0-.548,1.065ZM81.195.12a4.811,4.811,0,0,1-1.95-.375A3.33,3.33,0,0,1,77.9-1.283a2.7,2.7,0,0,1-.555-1.462h2.535a.975.975,0,0,0,.4.7,1.433,1.433,0,0,0,.885.27,1.263,1.263,0,0,0,.743-.188.574.574,0,0,0,.262-.487.562.562,0,0,0-.375-.533A7.576,7.576,0,0,0,80.58-3.36a11.407,11.407,0,0,1-1.5-.443,2.592,2.592,0,0,1-1.035-.735,2,2,0,0,1-.435-1.357,2.305,2.305,0,0,1,.4-1.312,2.676,2.676,0,0,1,1.17-.937,4.48,4.48,0,0,1,1.838-.345,3.684,3.684,0,0,1,2.482.78A3.035,3.035,0,0,1,84.54-5.64H82.17a1.021,1.021,0,0,0-.382-.69,1.327,1.327,0,0,0-.847-.255,1.172,1.172,0,0,0-.69.172.551.551,0,0,0-.24.473.577.577,0,0,0,.382.54,6.126,6.126,0,0,0,1.192.36,13.046,13.046,0,0,1,1.515.472,2.613,2.613,0,0,1,1.028.75,2.122,2.122,0,0,1,.457,1.388,2.2,2.2,0,0,1-.412,1.313,2.728,2.728,0,0,1-1.185.908A4.532,4.532,0,0,1,81.195.12Z" transform="translate(28 21)" fill="#fff"/>
  </g>
</svg>
