<svg xmlns="http://www.w3.org/2000/svg" xmlns:xlink="http://www.w3.org/1999/xlink" width="114" height="30" viewBox="0 0 114 30">
  <defs>
    <clipPath id="clip-logo">
      <rect width="114" height="30"/>
    </clipPath>
  </defs>
  <g id="logo" clip-path="url(#clip-logo)">
    <g id="popcorn" transform="translate(-73.141 0)">
      <path id="Vereinigungsmenge_1" data-name="Vereinigungsmenge 1" d="M-160.979,155.58v-7.619a9.766,9.766,0,0,0,2.631-.554l-.769,8.174Zm-3.62,0-.769-8.174a9.758,9.758,0,0,0,2.631.554v7.619Zm7.247,0,.868-9.236a2.883,2.883,0,0,0,1.093-2.178,2.719,2.719,0,0,0-.718-1.8l.6-6.362h4.35l-3.092,19.579Zm-12.11,0L-172.555,136h4.35l.6,6.363a2.715,2.715,0,0,0-.718,1.8,2.886,2.886,0,0,0,1.093,2.179l.868,9.235Z" transform="translate(246 -125.579)" fill="#6366f1"/>
      <g id="Gruppe_4" data-name="Gruppe 4" transform="translate(79.56 10.421)">
        <g id="Gruppe_3" data-name="Gruppe 3" transform="translate(0)">
          <path id="Pfad_7" data-name="Pfad 7" d="M177.809,177.846l.486,5.171a9.292,9.292,0,0,1,3.217-.8v-4.371Z" transform="translate(-177.809 -177.846)" fill="#6366f1"/>
        </g>
      </g>
      <g id="Gruppe_8" data-name="Gruppe 8" transform="translate(74.121 0)">
        <g id="Gruppe_7" data-name="Gruppe 7" transform="translate(0 0)">
          <path id="Pfad_9" data-name="Pfad 9" d="M104.269,7.224a2.982,2.982,0,0,0-.889-.648A2.978,2.978,0,0,0,100,2.956q0-.051,0-.1A2.983,2.983,0,0,0,95,.786a2.983,2.983,0,0,0-5,2.107c0,.021,0,.042,0,.063a2.983,2.983,0,0,0-3.381,3.62,2.988,2.988,0,0,0-1.64,2.087H105.02A2.955,2.955,0,0,0,104.269,7.224Z" transform="translate(-84.979 0)" fill="#6366f1"/>
        </g>
      </g>
      <g id="Gruppe_10" data-name="Gruppe 10" transform="translate(79.432 16.516)">
        <g id="Gruppe_9" data-name="Gruppe 9" transform="translate(0)">
          <path id="Pfad_10" data-name="Pfad 10" d="M183.873,282.631a8.608,8.608,0,0,0-7.083,0c-.731.386-1.168.875-1.168,1.309s.437.922,1.168,1.308a8.608,8.608,0,0,0,7.083,0c.732-.386,1.168-.875,1.168-1.308S184.6,283.017,183.873,282.631Z" transform="translate(-175.622 -281.869)" fill="#6366f1"/>
        </g>
      </g>
      <g id="Gruppe_16" data-name="Gruppe 16" transform="translate(85.02 10.421)">
        <g id="Gruppe_15" data-name="Gruppe 15" transform="translate(0)">
          <path id="Pfad_13" data-name="Pfad 13" d="M271,177.846v4.371a9.294,9.294,0,0,1,3.217.8l.486-5.171Z" transform="translate(-271.001 -177.846)" fill="#6366f1"/>
        </g>
      </g>
    </g>
    <text id="gudMovies" transform="translate(28 21)" fill="#fff" font-size="15" font-family="Poppins-Bold, Poppins" font-weight="700"><tspan x="0" y="0">gudMovies</tspan></text>
  </g>
</svg>
